<?xml version="1.0" encoding="UTF-8"?>
<svg xmlns="http://www.w3.org/2000/svg" width="128" height="128" viewBox="0 0 128 128" role="img">
  <title>xwpe</title>
  <desc>xwpe programming environment icon</desc>
  <rect x="3" y="3" width="122" height="122" rx="6" fill="#060668" stroke="#3FD6D6" stroke-width="3.5"/>
  <rect x="9" y="9" width="110" height="110" fill="none" stroke="#3FD6D6" stroke-width="1.5"/>
  <rect x="9" y="9" width="110" height="17" fill="#3FD6D6"/>
  <rect x="15" y="13" width="9" height="9" fill="#060668"/>
  <path d="M32.2451171875 63.21875 25.25 73.1640625 32.857421875 84.0H26.51171875L22.4296875 77.0048828125L18.3662109375 84.0H12.0205078125L19.7021484375 73.1640625L12.6328125 63.21875H18.978515625L22.4296875 69.416015625L25.8994140625 63.21875Z M33.8779296875 63.21875H38.4052734375L40.873046875 79.138671875L43.1181640625 68.6552734375H47.515625L49.7236328125 79.138671875L52.228515625 63.21875H56.755859375L52.9892578125 84.0H47.8310546875L45.3076171875 73.201171875L42.802734375 84.0H37.64453125Z M64.95703125 81.068359375V91.904296875H59.5390625V63.21875H64.95703125V66.3359375Q65.810546875 64.5361328125 67.2021484375 63.626953125Q68.59375 62.7177734375 70.4677734375 62.7177734375Q74.0302734375 62.7177734375 75.9970703125 65.5751953125Q77.9638671875 68.4326171875 77.9638671875 73.6279296875Q77.9638671875 78.8974609375 75.96923828125 81.7177734375Q73.974609375 84.5380859375 70.2822265625 84.5380859375Q68.6123046875 84.5380859375 67.28564453125 83.67529296875Q65.958984375 82.8125 64.95703125 81.068359375ZM72.52734375 73.5908203125Q72.52734375 70.5849609375 71.525390625 68.8779296875Q70.5234375 67.1708984375 68.7607421875 67.1708984375Q66.998046875 67.1708984375 65.9775390625 68.8779296875Q64.95703125 70.5849609375 64.95703125 73.5908203125Q64.95703125 76.5966796875 65.9775390625 78.3037109375Q66.998046875 80.0107421875 68.7607421875 80.0107421875Q70.5234375 80.0107421875 71.525390625 78.3037109375Q72.52734375 76.5966796875 72.52734375 73.5908203125Z M100.0810546875 82.9794921875Q98.1884765625 83.7587890625 96.2216796875 84.1484375Q94.2548828125 84.5380859375 92.0654296875 84.5380859375Q86.8515625 84.5380859375 84.09619140625 81.74560546875Q81.3408203125 78.953125 81.3408203125 73.7021484375Q81.3408203125 68.6181640625 83.994140625 65.66796875Q86.6474609375 62.7177734375 91.23046875 62.7177734375Q95.8505859375 62.7177734375 98.40185546875 65.45458984375Q100.953125 68.19140625 100.953125 73.1640625V75.3720703125H86.8701171875Q86.888671875 77.8212890625 88.3173828125 79.02734375Q89.74609375 80.2333984375 92.5849609375 80.2333984375Q94.458984375 80.2333984375 96.27734375 79.6953125Q98.095703125 79.1572265625 100.0810546875 77.98828125ZM95.4794921875 71.2900390625Q95.4423828125 69.1376953125 94.37548828125 68.03369140625Q93.30859375 66.9296875 91.23046875 66.9296875Q89.3564453125 66.9296875 88.2431640625 68.07080078125Q87.1298828125 69.2119140625 86.92578125 71.30859375Z" fill="#FFFFFF"/>
  <rect x="104" y="56" width="12" height="32" fill="#FFE94D"/>
</svg>
