<?xml version="1.0" encoding="UTF-8"?>
<svg xmlns="http://www.w3.org/2000/svg" width="128" height="128" viewBox="0 0 128 128" role="img">
  <title>xwpe</title>
  <desc>xwpe programming environment icon</desc>
  <rect x="3" y="3" width="122" height="122" rx="6" fill="#060668" stroke="#3FD6D6" stroke-width="3.5"/>
  <rect x="9" y="9" width="110" height="110" fill="none" stroke="#3FD6D6" stroke-width="1.5"/>
  <rect x="9" y="9" width="110" height="12" fill="#3FD6D6"/>
  <rect x="15" y="11" width="7" height="7" fill="#060668"/>
  <path d="M31.36328125 60.125 24.0 70.59375 32.0078125 82.0H25.328125L21.03125 74.63671875L16.75390625 82.0H10.07421875L18.16015625 70.59375L10.71875 60.125H17.3984375L21.03125 66.6484375L24.68359375 60.125Z M33.08203125 60.125H37.84765625L40.4453125 76.8828125L42.80859375 65.84765625H47.4375L49.76171875 76.8828125L52.3984375 60.125H57.1640625L53.19921875 82.0H47.76953125L45.11328125 70.6328125L42.4765625 82.0H37.046875Z M65.796875 78.9140625V90.3203125H60.09375V60.125H65.796875V63.40625Q66.6953125 61.51171875 68.16015625 60.5546875Q69.625 59.59765625 71.59765625 59.59765625Q75.34765625 59.59765625 77.41796875 62.60546875Q79.48828125 65.61328125 79.48828125 71.08203125Q79.48828125 76.62890625 77.388671875 79.59765625Q75.2890625 82.56640625 71.40234375 82.56640625Q69.64453125 82.56640625 68.248046875 81.658203125Q66.8515625 80.75 65.796875 78.9140625ZM73.765625 71.04296875Q73.765625 67.87890625 72.7109375 66.08203125Q71.65625 64.28515625 69.80078125 64.28515625Q67.9453125 64.28515625 66.87109375 66.08203125Q65.796875 67.87890625 65.796875 71.04296875Q65.796875 74.20703125 66.87109375 76.00390625Q67.9453125 77.80078125 69.80078125 77.80078125Q71.65625 77.80078125 72.7109375 76.00390625Q73.765625 74.20703125 73.765625 71.04296875Z M102.76953125 80.92578125Q100.77734375 81.74609375 98.70703125 82.15625Q96.63671875 82.56640625 94.33203125 82.56640625Q88.84375 82.56640625 85.943359375 79.626953125Q83.04296875 76.6875 83.04296875 71.16015625Q83.04296875 65.80859375 85.8359375 62.703125Q88.62890625 59.59765625 93.453125 59.59765625Q98.31640625 59.59765625 101.001953125 62.478515625Q103.6875 65.359375 103.6875 70.59375V72.91796875H88.86328125Q88.8828125 75.49609375 90.38671875 76.765625Q91.890625 78.03515625 94.87890625 78.03515625Q96.8515625 78.03515625 98.765625 77.46875Q100.6796875 76.90234375 102.76953125 75.671875ZM97.92578125 68.62109375Q97.88671875 66.35546875 96.763671875 65.193359375Q95.640625 64.03125 93.453125 64.03125Q91.48046875 64.03125 90.30859375 65.232421875Q89.13671875 66.43359375 88.921875 68.640625Z" fill="#FFFFFF"/>
  <rect x="106" y="52" width="10" height="36" fill="#FFE94D"/>
</svg>
